<svg width="193" height="40" viewBox="0 0 193 40" fill="none" xmlns="http://www.w3.org/2000/svg">
<g clip-path="url(#clip0_76_927)">
<path d="M57.8766 9.0983H65.7846L71.6752 22.8642L77.5659 9.0983H85.7347V30.9026H80.3649V14.6628L73.4335 30.9016H69.7884L63.0191 15.0532V30.9016H57.8776V9.0983H57.8766Z" fill="white"/>
<path d="M89.5802 20C89.5802 11.6364 92.7045 8.70694 101.459 8.70694C110.246 8.70694 113.338 11.6364 113.338 20C113.338 28.3635 110.246 31.293 101.459 31.293C92.7045 31.293 89.5802 28.3635 89.5802 20ZM107.837 20C107.837 14.8575 106.438 13.3928 101.459 13.3928C96.48 13.3928 95.0805 14.8575 95.0805 20C95.0805 25.1424 96.48 26.6062 101.459 26.6062C106.438 26.6062 107.837 25.1424 107.837 20Z" fill="white"/>
<path d="M113.927 9.0983H119.688L125.48 24.3942L131.241 9.0983H136.774L128.149 30.9026H122.551L113.927 9.0983Z" fill="white"/>
<path d="M138.86 9.0983H144.23V30.9026H138.86V9.0983Z" fill="white"/>
<path d="M148.624 21.9846V9.0983H153.994V21.9856C153.994 25.6307 154.97 26.5736 159.2 26.5736C163.269 26.5736 164.309 25.6959 164.309 21.9856V9.0983H169.451V21.9856C169.451 29.3726 167.303 31.294 159.036 31.294C150.77 31.294 148.624 29.3726 148.624 21.9846Z" fill="white"/>
<path d="M172.646 30.0882L172.971 25.2719C175.672 26.2484 178.601 26.6715 182.604 26.6715C186.444 26.6715 187.323 26.2811 187.323 24.4911C187.323 23.2221 186.867 22.7664 184.166 22.5391L180.261 22.2139C174.826 21.7573 172.873 20.2293 172.873 15.7698C172.873 10.5305 175.542 8.70792 183.125 8.70792C186.151 8.70792 188.787 9.00144 191.619 9.74964L191.293 14.5333C188.527 13.6873 185.989 13.3295 182.604 13.3295C178.926 13.3295 178.243 13.7525 178.243 15.3794C178.243 16.5506 178.601 17.0062 181.433 17.2345L185.305 17.5597C190.903 18.048 192.692 19.7074 192.692 24.1669C192.692 29.5367 190.056 31.294 182.213 31.294C178.374 31.293 175.217 30.8691 172.646 30.0882Z" fill="white"/>
<path d="M40.7755 0.0354919H0.846436V39.9645H40.7755V0.0354919Z" fill="#FF4E3B"/>
<path d="M12.3141 32.8048V11.2086L12.974 11.9405L20.7409 19.4772L33.609 7.19519H27.3875L20.7659 13.5156L14.2536 7.19519H8.01959V32.8048H12.3141Z" fill="white"/>
<path d="M20.7659 24.3031L15.703 19.3909V25.3765L20.7409 30.2657L29.3059 22.0902V32.8048H33.6023V12.0508L20.7659 24.3031Z" fill="white"/>
</g>
<defs>
<clipPath id="clip0_76_927">
<rect width="191.847" height="40" fill="white" transform="translate(0.846436)"/>
</clipPath>
</defs>
</svg>
